<svg width="490" height="89" xmlns="http://www.w3.org/2000/svg"><g fill="none"><g fill="#00ADEF"><path d="M348.56 36.28c-.18 3.893-2.939 9.224-8.275 15.99-5.518 7.068-10.186 10.602-14.004 10.602-2.365 0-4.368-2.152-6.003-6.457l-3.275-11.837c-1.214-4.303-2.516-6.457-3.909-6.457-.304 0-1.366.63-3.185 1.884L308 37.581a509.12 509.12 0 0 0 5.922-5.205c2.67-2.275 4.676-3.47 6.013-3.592 3.158-.299 5.102 1.829 5.832 6.383.788 4.914 1.334 7.97 1.64 9.167.91 4.077 1.912 6.113 3.007 6.113.849 0 2.124-1.323 3.826-3.967 1.699-2.645 2.61-4.657 2.732-6.04.243-2.282-.668-3.426-2.732-3.426-.972 0-1.973.22-3.004.656 1.995-6.438 5.805-9.565 11.43-9.387 4.17.12 6.135 2.786 5.895 7.997"/><path d="M365.68 16.965c-.06 1.49-.82 2.92-2.279 4.29-1.64 1.548-3.584 2.322-5.832 2.322-3.461 0-5.134-1.488-5.011-4.466.058-1.547.985-3.037 2.777-4.468 1.793-1.427 3.781-2.143 5.97-2.143 1.276 0 2.338.493 3.19 1.475.85.983 1.244 1.98 1.185 2.99zm7.928 31.926c-1.702 3.169-4.04 6.04-7.017 8.61-4.072 3.469-8.14 5.203-12.209 5.203-1.885 0-3.329-.598-4.33-1.795-1.001-1.196-1.472-2.749-1.411-4.665.058-1.972.681-5.023 1.866-9.15 1.186-4.127 1.78-6.341 1.78-6.64 0-1.554-.55-2.333-1.641-2.333-.365 0-1.398.63-3.1 1.884l-2.095-2.424c1.943-1.734 3.887-3.468 5.831-5.205 2.613-2.275 4.557-3.471 5.835-3.592 2.002-.178 3.475.402 4.417 1.745.94 1.343 1.29 3.085 1.05 5.232-.791 3.638-1.644 8.258-2.554 13.862-.062 2.565.881 3.846 2.825 3.846.85 0 2.367-.884 4.556-2.658 1.822-1.474 3.31-2.862 4.466-4.163l1.73 2.243z"/><path d="M430.512 48.89c-1.702 3.17-4.04 6.04-7.017 8.611-4.07 3.469-8.14 5.203-12.209 5.203-3.952 0-5.863-2.151-5.741-6.46.058-1.915.44-4.215 1.137-6.907.698-2.692 1.079-4.785 1.14-6.28.061-2.273-.64-3.411-2.104-3.411-1.584 0-3.472 1.857-5.666 5.567-2.317 3.89-3.569 7.66-3.75 11.31-.122 2.576.133 4.552.767 5.926-4.24.121-7.209-.569-8.902-2.065-1.518-1.316-2.213-3.499-2.09-6.553a23.88 23.88 0 0 1 .894-5.745c.535-1.915.834-3.62.895-5.119.123-2.214-.7-3.321-2.463-3.321-1.523 0-3.167 1.707-4.93 5.118-1.762 3.41-2.736 6.974-2.918 10.683-.123 3.353.096 5.685.653 7.002-4.17.121-7.132-.745-8.884-2.597-1.454-1.55-2.117-3.906-1.994-7.07.058-1.551.335-3.715.836-6.491.5-2.776.78-4.938.839-6.49.12-1.073-.155-1.611-.82-1.611-.366 0-1.399.606-3.1 1.815l-2.186-2.424c.303-.236 2.215-1.973 5.74-5.205 2.552-2.332 4.283-3.529 5.193-3.59 1.58-.12 2.855.523 3.827 1.93.972 1.406 1.46 3.037 1.46 4.892 0 .598-.062 1.167-.182 1.706a16.581 16.581 0 0 1 3.19-3.592c2.793-2.393 5.923-3.741 9.385-4.04 2.977-.24 5.102.448 6.38 2.064 1.03 1.317 1.515 3.204 1.456 5.656.427-.356.882-.747 1.37-1.167 1.395-1.616 2.76-2.901 4.098-3.86 2.247-1.615 4.587-2.512 7.016-2.694 2.916-.238 5.011.447 6.287 2.058 1.092 1.311 1.58 3.19 1.46 5.632-.062 1.671-.472 4.1-1.23 7.29-.763 3.19-1.14 5.022-1.14 5.5-.062 1.254.06 2.117.364 2.594.304.478 1.03.714 2.186.714.85 0 2.367-.884 4.557-2.658 1.821-1.474 3.31-2.862 4.465-4.163l1.731 2.243z"/><path d="M443.997 39.425c.059-1.605-.607-2.41-2.003-2.41-1.821 0-3.67 1.235-5.549 3.706-1.88 2.472-2.852 4.838-2.91 7.1-.035 0-.035.388 0 1.162 2.971-1.07 5.549-2.708 7.732-4.912 1.758-1.904 2.669-3.455 2.73-4.646zm20.685 9.374c-1.763 2.87-5.224 5.738-10.388 8.605-6.439 3.647-12.97 5.468-19.59 5.468-4.922 0-8.447-1.617-10.572-4.846-1.518-2.214-2.248-4.846-2.186-7.9.058-4.845 2.247-9.452 6.561-13.823 4.737-4.785 10.326-7.18 16.766-7.18 5.953 0 9.112 2.39 9.477 7.165.242 3.043-1.46 6.178-5.103 9.402-3.89 3.524-8.782 5.762-14.672 6.716 1.092 1.493 2.732 2.239 4.92 2.239 4.373 0 9.143-1.095 14.309-3.288 3.704-1.54 6.62-3.14 8.747-4.798l1.73 2.24z"/><path d="M479.12 42.442c.062-1.618-.167-3.103-.684-4.452-.516-1.348-1.262-2.025-2.231-2.025-3.1 0-5.65 1.65-7.653 4.948-1.704 2.7-2.615 5.577-2.735 8.634-.06 1.5.213 2.82.82 3.959.666 1.32 1.608 1.978 2.825 1.978 2.733 0 5.073-1.587 7.017-4.767 1.64-2.64 2.52-5.397 2.642-8.275m10.297.339c-.245 5.498-2.309 10.25-6.196 14.253-3.888 4.004-8.719 6.006-14.49 6.006-4.798 0-8.443-1.525-10.933-4.573-1.821-2.27-2.825-5.108-3.006-8.513-.306-5.14 1.576-9.863 5.65-14.165 4.373-4.78 9.869-7.17 16.491-7.17 4.25 0 7.47 1.406 9.659 4.213 2.066 2.572 3.006 5.887 2.825 9.949"/></g><path d="M251 45.707l14.44-14.44a.914.914 0 1 1 1.292 1.294L252.293 47l14.44 14.44a.914.914 0 1 1-1.294 1.292L251 48.293l-14.44 14.44a.914.914 0 1 1-1.292-1.294L249.707 47l-14.44-14.44a.914.914 0 1 1 1.294-1.292L251 45.707z" stroke="#D5D5D5" fill="#D5D5D5" stroke-linecap="round" stroke-linejoin="round"/><g fill="#FFF"><path d="M136.2 37.245c3.677 0 6.784 3.126 6.784 6.827 0 3.7-3.107 6.827-6.784 6.827-3.677 0-6.785-3.126-6.785-6.827 0-3.7 3.108-6.827 6.785-6.827m0 19.505c6.948 0 12.6-5.687 12.6-12.678 0-6.99-5.652-12.678-12.6-12.678-6.948 0-12.6 5.687-12.6 12.678 0 6.99 5.652 12.678 12.6 12.678m-31.233-4.11c.096.216.207.439.33.662.815 1.466 2.164 2.241 3.899 2.241 1.764 0 3.076-.754 3.902-2.242a8.35 8.35 0 0 0 .328-.662l8.927-20.466a.558.558 0 0 0-.042-.527.543.543 0 0 0-.458-.252h-5.16a.88.88 0 0 0-.813.547l-6.684 16.083-6.675-16.082a.881.881 0 0 0-.814-.548h-5.16a.544.544 0 0 0-.458.252.562.562 0 0 0-.042.527l8.92 20.467zM63.028 35.181a6.316 6.316 0 0 0-.414-1.144 6.779 6.779 0 0 0-.173-.328c-.862-1.518-2.278-2.315-4.1-2.315-1.822 0-3.237.795-4.092 2.299a8.318 8.318 0 0 0-.522 1.134L49.8 45.732l-3.928-10.907a8.278 8.278 0 0 0-.517-1.126c-.86-1.51-2.274-2.305-4.095-2.305-1.823 0-3.24.797-4.095 2.304a7.01 7.01 0 0 0-.18.34c-.156.317-.287.68-.413 1.143l-5.35 19.651a.557.557 0 0 0 .537.71l4.993.001a.898.898 0 0 0 .863-.631l3.883-14.304 4.932 12.454a.898.898 0 0 0 .84.569h5.06a.897.897 0 0 0 .84-.569l4.932-12.454 3.885 14.309a.897.897 0 0 0 .862.626h4.99a.556.556 0 0 0 .539-.709l-5.35-19.653z"/><path d="M179.638 31.394h-1.58c-2.233 0-4.043 1.867-4.043 4.17v39.788c0 3.655-2.872 6.618-6.414 6.618H94.04c-2.23 0-4.04 1.867-4.04 4.17v1.63a.37.37 0 0 0 .362.374h77.186c6.877 0 12.452-5.751 12.452-12.847v-43.53a.37.37 0 0 0-.362-.373M90 2.004V.374A.368.368 0 0 0 89.638 0H12.452C5.575 0 0 5.752 0 12.847v43.53a.37.37 0 0 0 .363.373h1.58c2.232 0 4.041-1.866 4.041-4.17V12.793c0-3.655 2.872-6.619 6.415-6.619h73.559C88.19 6.174 90 4.307 90 2.004M75.938 41.497c1.034-2.468 3.484-4.252 6.262-4.252 2.778 0 5.227 1.784 6.261 4.252H75.938zm18.001 5.15a.713.713 0 0 0 .707-.593 12.806 12.806 0 0 0-.108-4.557c-1.186-5.76-6.267-10.103-12.338-10.103-6.071 0-11.153 4.342-12.338 10.103a12.746 12.746 0 0 0 0 5.15c1.185 5.76 6.267 10.103 12.338 10.103 4.612 0 8.65-2.508 10.846-6.239a.472.472 0 0 0-.403-.711h-6.465c-.23 0-.452.068-.651.185a6.584 6.584 0 0 1-3.327.914c-2.778 0-5.228-1.785-6.262-4.252H93.94z"/></g></g></svg>