<svg width="162" height="23" xmlns="http://www.w3.org/2000/svg" xmlns:xlink="http://www.w3.org/1999/xlink"><defs><path id="a" d="M9.657 14.375V.4H.522v13.975z"/><path id="c" d="M0 23h161.235V0H0z"/></defs><g fill="none" fill-rule="evenodd"><path fill="#FFF" d="M60.32 9.38V20h-3.64V9.38H53V6h11v3.38zm8.074 2.06c-.777 0-1.213.537-1.327 1.534h2.843c-.171-1.016-.512-1.533-1.516-1.533zm4.51 3.682h-5.837c.114 1.111.757 1.61 1.687 1.61.871 0 1.592-.192 2.578-.71l1.306 2.206c-1.23.727-2.501 1.15-4.055 1.15-2.994 0-4.643-2.148-4.643-5.235 0-3.47 1.933-5.253 4.548-5.253 2.729 0 4.435 1.822 4.435 5.56 0 .288 0 .499-.019.672zm6.346 4.255c-2.917 0-4.662-1.878-4.662-5.272 0-3.086 1.555-5.214 4.738-5.214 1.877 0 2.957.882 3.829 2.3l-2.35 1.802c-.474-.882-.797-1.304-1.535-1.304-.872 0-1.308.882-1.308 2.474s.474 2.415 1.402 2.415c.644 0 1.1-.364 1.724-1.303l2.161 1.705c-1.155 1.726-2.236 2.397-3.999 2.397m11.634-.21v-5.714c0-1.303-.435-1.648-1.136-1.648-.721 0-1.157.345-1.157 1.61v5.752h-3.41V6.57l3.41-1.38v4.581c.625-.479 1.326-.882 2.502-.882 2.18 0 3.222 1.476 3.222 4.122v6.155h-3.43zm11.596.21c-3.942 0-6.046-2.952-6.046-6.92 0-4.314 2.502-6.921 6.065-6.921 3.26 0 4.549 1.418 5.458 3.95l-3.335 1.322c-.474-1.246-.929-2.033-2.142-2.033-1.534 0-2.197 1.554-2.197 3.681 0 2.052.643 3.681 2.235 3.681 1.156 0 1.649-.632 2.369-1.897l3.108 1.667c-.89 1.764-2.37 3.47-5.515 3.47m13.907-6.48c-.436-.479-.928-.843-1.592-.843-.835 0-1.346.402-1.346 1.63v5.483h-3.41V9.1h3.41v.729c.588-.575 1.251-.94 2.124-.94.719 0 1.212.173 1.61.422l-.796 3.585zm8.11 6.27v-.672c-.608.479-1.327.883-2.482.883-2.18 0-3.222-1.476-3.222-4.123V9.1h3.43v5.714c0 1.302.436 1.648 1.137 1.648.7 0 1.137-.346 1.137-1.61V9.1h3.43v10.066h-3.43zm11.596 0v-5.714c0-1.303-.436-1.648-1.137-1.648-.721 0-1.157.345-1.157 1.61v5.752h-3.41V9.1h3.41v.671c.625-.479 1.326-.882 2.502-.882 2.18 0 3.222 1.476 3.222 4.122v6.155h-3.43zm10.078.21c-2.918 0-4.662-1.878-4.662-5.272 0-3.086 1.555-5.214 4.738-5.214 1.877 0 2.957.882 3.828 2.3l-2.349 1.802c-.474-.882-.797-1.304-1.535-1.304-.872 0-1.308.882-1.308 2.474s.474 2.415 1.402 2.415c.644 0 1.099-.364 1.724-1.303l2.161 1.705c-1.156 1.726-2.237 2.397-3.999 2.397"/><g transform="translate(151.579 4.792)"><mask id="b" fill="#fff"><use xlink:href="#a"/></mask><path d="M6.226 14.375V8.661c0-1.303-.435-1.648-1.136-1.648-.721 0-1.157.345-1.157 1.61v5.752H.523V1.78L3.932.4v4.58c.625-.479 1.326-.881 2.502-.881 2.18 0 3.222 1.476 3.222 4.122v6.154h-3.43z" fill="#FFF" mask="url(#b)"/></g><path fill="#FFF" d="M0 0v7.667h7.579V23h7.579V7.667h7.579V0z"/><path fill="#FFF" d="M30.316 15.333V7.667h-7.58V23h22.738v-7.667z"/><mask id="d" fill="#fff"><use xlink:href="#c"/></mask><path fill="#FFF" mask="url(#d)" d="M30.316 7.667h15.158V0H30.316z"/></g></svg>