<svg width="112" height="19" xmlns="http://www.w3.org/2000/svg" xmlns:xlink="http://www.w3.org/1999/xlink"><defs><path id="a" d="M99.979.045H0V19h99.979V.045z"/><path id="c" d="M41.993 17.964V.043H0v17.92h41.993z"/></defs><g fill="none" fill-rule="evenodd"><mask id="b" fill="#fff"><use xlink:href="#a"/></mask><path d="M47.66 17.882C45 11.464 40.418 1.062 40.07.645l-.46-.55h6.463c3.554 0 6.462.066 6.462.146 0 .08-.378 1.148-.84 2.375l-.837 2.229-1.47.057c-.809.03-1.47.09-1.47.13 0 .183 1.802 5.065 1.92 5.199.073.084.982-2.163 2.02-4.992L53.744.095h14.951v2.832c0 2.627-.024 2.82-.336 2.676-.186-.086-1.354-.19-2.598-.231l-2.26-.075v2.02l1.635-.087 1.635-.086v4.536l-.85-.183c-.469-.1-1.183-.155-1.588-.122l-.736.061-.058 1.115-.057 1.115h1.716c1.035 0 2.043-.116 2.536-.291.45-.16.85-.29.89-.29.04 0 .071 1.22.071 2.713v2.714h-5.602c-4.59 0-5.566-.045-5.395-.253.23-.279.418-13.705.192-13.705-.07 0-1.454 3.14-3.074 6.98l-2.945 6.978h-3.95l-.26-.63zm-21.844.31c.401-.487.493-16.15.102-17.295l-.274-.802h11.114v5.372l-1.01-.267c-.57-.15-1.68-.244-2.55-.214l-1.539.053-.058 1.14-.059 1.139 1.646-.087 1.646-.087v4.536l-.851-.183c-.469-.1-1.183-.155-1.588-.122l-.736.061-.058 1.04-.06 1.038 2.176-.095c1.196-.053 2.37-.16 2.608-.238l.433-.142v5.473h-5.603c-5.189 0-5.584-.023-5.339-.32zM10.207 9.304V.095h7.889v5.363l-1.059-.088-1.058-.088v1.986h3.27V.095h5.773v18.417h-6.147l.187-.497c.104-.274.188-1.8.188-3.393v-2.895h-3.29l.06 3.053c.032 1.68.132 3.206.222 3.393.152.316-.05.34-2.936.34h-3.099v-9.21zM3.21 18.173c.09-.187.19-3.162.223-6.611l.06-6.272-1.746.068L0 5.427l.053-2.618L.106.192 4.58.14 9.053.088v18.424H6.05c-2.793 0-2.991-.023-2.84-.339zm88.51.725a9.459 9.459 0 0 1-7.166-5.792c-.63-1.566-.842-4.25-.465-5.862.537-2.294 1.981-4.392 3.861-5.608C89.618.558 90.938.254 94.428.144l3.127-.1v6.598l-1.203-.494a8.247 8.247 0 0 0-2.645-.575c-1.347-.076-1.503-.042-2.348.506-1.21.786-1.768 1.868-1.78 3.45-.008 1.026.074 1.314.576 2.034.78 1.118 1.841 1.709 3.07 1.709 1.277 0 1.484-.158 1.409-1.08l-.061-.756-1.491.01-1.491.01V7.17l4.04.056 4.04.056v3.938c0 2.393.084 4.18.214 4.557.27.78.017 1.096-1.545 1.935-1.883 1.011-4.722 1.52-6.62 1.185z" fill="#FFF" mask="url(#b)"/><g transform="translate(70)"><mask id="d" fill="#fff"><use xlink:href="#c"/></mask><path d="M30.994 17.634c.21-.423.217-16.595.007-17.164l-.158-.427 5.522.05 5.521.05.054 2.607.053 2.608-.437-.138c-1.06-.335-1.875-.448-3.262-.452l-1.484-.005v2.31l1.628-.083 1.628-.084v2.249c0 2.065-.027 2.239-.335 2.12-.184-.07-.908-.175-1.608-.233l-1.273-.107-.068.993c-.048.693.007 1.021.182 1.087.325.123 4.027-.074 4.587-.244l.43-.13v5.323h-5.575c-5.245 0-5.566-.02-5.412-.33zM6.58 4.767c.184.011.45.114.832.271 1.14.47 1.371 1.696.485 2.57-.377.37-.754.548-1.15.548h-.586V6.458c0-1.296.013-1.716.419-1.69zM0 .047L.156.47c.209.568.203 16.74-.006 17.16-.153.308.056.33 3.119.33 3.187 0 3.281-.011 3.089-.365-.11-.2-.198-1.394-.198-2.652 0-2.284.001-2.288.431-2.163.806.235 1.86 1.032 2.371 1.792.576.857.81 2.356.467 2.988l-.221.4h3.274c1.916 0 3.23-.07 3.167-.17-.06-.095-.264-1.103-.46-2.24-.435-2.504-1.213-4.097-2.45-5.027l-.82-.618.468-.619c1.562-2.085 1.313-5.573-.527-7.384C10.363.43 8.658.055 3.509.053L0 .047z" fill="#FFF" mask="url(#d)"/></g></g></svg>