<svg width="113" height="20" xmlns="http://www.w3.org/2000/svg" xmlns:xlink="http://www.w3.org/1999/xlink"><defs><path id="a" d="M14.485.115H.004V20h14.48V.115z"/><path id="c" d="M21.78.114H0v19.31h21.78z"/><path id="e" d="M0 20h113V0H0z"/></defs><g fill="none" fill-rule="evenodd"><path d="M31.404 16.012v-1.258c-.457-.674-1.485-.998-2.458-.998-1.14 0-2.199.529-2.199 1.643 0 1.114 1.059 1.64 2.2 1.64.972 0 2-.35 2.457-1.027zm0 3.635V18.24c-.856 1.055-2.516 1.76-4.286 1.76-2.113 0-4.742-1.495-4.742-4.661 0-3.427 2.63-4.573 4.742-4.573 1.828 0 3.457.617 4.286 1.671V11.03c0-1.23-1.028-2.08-2.801-2.08-1.371 0-2.742.557-3.856 1.523L23.118 7.34c1.774-1.555 4.145-2.196 6.258-2.196 3.313 0 6.426 1.258 6.426 5.655v8.85h-4.398zm4.398-1.843l1.846-3.223c1.038.938 3.26 1.904 4.905 1.904 1.326 0 1.874-.38 1.874-.998 0-1.755-8.104.06-8.104-5.683 0-2.493 2.134-4.661 5.97-4.661 2.367 0 4.328.761 5.827 1.876l-1.7 3.194c-.837-.822-2.423-1.551-4.096-1.551-1.042 0-1.732.409-1.732.966 0 1.55 8.076-.06 8.076 5.743 0 2.697-2.335 4.629-6.316 4.629-2.51 0-5.078-.85-6.55-2.196m22.553 1.625v-8.187c0-1.717-.866-2.27-2.233-2.27-1.256 0-2.092.728-2.596 1.37v9.087h-4.298V0h4.298v7.08c.81-.993 2.401-2.068 4.661-2.068 3.07 0 4.466 1.804 4.466 4.397v10.02h-4.298zM72.8 16.012v-1.258c-.457-.674-1.485-.998-2.457-.998-1.141 0-2.2.529-2.2 1.643 0 1.114 1.059 1.64 2.2 1.64.972 0 2-.35 2.457-1.027zm0 3.635V18.24c-.856 1.055-2.516 1.76-4.285 1.76-2.114 0-4.743-1.495-4.743-4.661 0-3.427 2.63-4.573 4.743-4.573 1.828 0 3.456.617 4.285 1.671V11.03c0-1.23-1.028-2.08-2.801-2.08-1.371 0-2.742.557-3.856 1.523L64.515 7.34c1.773-1.555 4.144-2.196 6.257-2.196 3.313 0 6.426 1.258 6.426 5.655v8.85H72.8z" fill="#FFF"/><g transform="translate(78.317)"><mask id="b" fill="#fff"><use xlink:href="#a"/></mask><path d="M6.99 16.015c1.732 0 3.037-1.318 3.037-3.452 0-2.11-1.305-3.429-3.037-3.429-.936 0-2.074.53-2.614 1.29v4.334c.54.76 1.678 1.257 2.614 1.257zM.004 19.648V.115h4.372v7.057c1.08-1.406 2.555-2.019 4.062-2.019 3.437 0 6.047 2.78 6.047 7.41 0 4.802-2.668 7.437-6.047 7.437-1.534 0-2.924-.645-4.062-1.99v1.638H.004z" fill="#FFF" mask="url(#b)"/></g><mask id="d" fill="#fff"><use xlink:href="#c"/></mask><path fill="#FFF" mask="url(#d)" d="M16.83 19.425V6.655L12 19.425H9.811L4.949 6.655v12.77H0V.114h6.877l4.029 10.655L14.903.114h6.877v19.31z"/><mask id="f" fill="#fff"><use xlink:href="#e"/></mask><path fill="#FFF" mask="url(#f)" d="M93.42 19.429h4.476V0h-4.475zm12.438-10.651c-1.937 0-2.689 1.17-2.863 2.196h5.754c-.115-.998-.838-2.196-2.89-2.196m-7.404 3.78c0-4.105 3.038-7.415 7.403-7.415 4.137 0 7.142 3.078 7.142 7.883v1.026h-9.945c.316 1.259 1.475 2.317 3.495 2.317.985 0 2.606-.441 3.413-1.203l1.938 2.958C110.513 19.387 108.199 20 106.06 20c-4.306 0-7.605-2.842-7.605-7.443"/></g></svg>