<svg width="40" height="40" xmlns="http://www.w3.org/2000/svg" xmlns:xlink="http://www.w3.org/1999/xlink"><defs><path id="a" d="M40 40H0V.038h40z"/></defs><g fill="none" fill-rule="evenodd"><path d="M29 17c0-1.326-2.96-1.337-3-.01V19l2.993-.001.007-2z" fill="#FFF"/><mask id="b" fill="#fff"><use xlink:href="#a"/></mask><path d="M34.063 26.53c-.475.004-.938-.176-1.034-.216l.01.004a.87.87 0 0 0-.014-.006c-.018-.007-.02-.008 0 0l.004.002c-.86-.386-1.186-1.314-1.246-2.347V12.032h1.938v2.978l-.01.023h1.857v1.392h-1.852l.005.014-.005 7.68c.038.734.489.981 1.01.975.411-.003 1.183.006 1.183.006v1.423s-1.53-.002-1.846.006zm-10.191-2.532V17.46c-.051-3.7 6.461-3.706 6.342.094v3.136a.353.353 0 0 1-.351.353l-4.071-.002v3.05c.026 1.443 2.503 1.421 2.503 0v-1.465h1.926v1.372c.119 3.793-6.4 3.7-6.35 0zm-.605 2.523h-3.138l-.001-9.251c0-1.33-2.21-1.309-2.298.001v9.25h-2.816v-1.424l.893.003v-8.668l-1.06-.007V15.01h2.716l.008 1.04s.331-.49 1.199-.97c1.1-.609 2.176-.003 2.02-.07.867.382 1.195 1.312 1.257 2.35v7.74h1.22v1.421zm-10.814 5.431h1.393V9.265h-1.393v22.687zm-7.636-7.954V17.46c-.05-3.7 6.467-3.705 6.344.094v1.136H9.265l-.023-1.23c0-1.417-2.48-1.376-2.505.07l.003-.07v6.632c.025 1.443 2.502 1.421 2.502 0v-1.465h1.927v1.372c.116 3.793-6.402 3.7-6.352 0zM20 .038C8.952.038 0 8.983 0 20.02 0 31.056 8.952 40 20 40c11.046 0 20-8.944 20-19.98C40 8.983 31.046.038 20 .038z" fill="#FFF" mask="url(#b)"/></g></svg>