<svg width="125" height="19" xmlns="http://www.w3.org/2000/svg" xmlns:xlink="http://www.w3.org/1999/xlink"><defs><path id="a" d="M.026.151h3.85V18.24H.027V.151z"/><path id="c" d="M17.86.162v18.012H.02V.162h17.84z"/><path id="e" d="M15.888.151H.135V18.24h15.753z"/><path id="g" d="M0 18.24V.15h16.837v18.09z"/></defs><g fill="none" fill-rule="evenodd"><g transform="translate(21)"><mask id="b" fill="#fff"><use xlink:href="#a"/></mask><path d="M.026 16.08V2.3c0-.716.177-1.253.532-1.61C.912.33 1.37.15 1.932.15c.58 0 1.048.177 1.407.531.358.354.538.893.538 1.617V16.08c0 .724-.18 1.265-.538 1.623-.36.358-.828.537-1.407.537-.553 0-1.01-.181-1.368-.543-.359-.362-.538-.901-.538-1.617" fill="#FFF" mask="url(#b)"/></g><g transform="translate(107)"><mask id="d" fill="#fff"><use xlink:href="#c"/></mask><path d="M8.94 3.808c-2.928 0-5.31 2.405-5.31 5.36 0 2.955 2.382 5.36 5.31 5.36 2.927 0 5.308-2.405 5.308-5.36 0-2.955-2.381-5.36-5.308-5.36m0 14.366c-4.919 0-8.92-4.04-8.92-9.006S4.02.162 8.94.162c4.918 0 8.92 4.04 8.92 9.006s-4.002 9.006-8.92 9.006" fill="#FFF" mask="url(#d)"/></g><path d="M75.5 3.643c-2.79 0-5.059 2.404-5.059 5.357 0 2.954 2.27 5.357 5.059 5.357 2.79 0 5.059-2.403 5.059-5.357 0-2.953-2.27-5.357-5.06-5.357M75.5 18c-4.686 0-8.5-4.037-8.5-9s3.813-9 8.5-9C80.187 0 84 4.037 84 9s-3.813 9-8.5 9" fill="#FFF"/><g transform="translate(89)"><mask id="f" fill="#fff"><use xlink:href="#e"/></mask><path d="M7.505 14.537c-.437.028-.907.033-1.412.033H3.724V3.821h2.37c.504 0 .974.006 1.41.034a5.37 5.37 0 0 1 3.782 2.292c.596.865.946 1.91.949 3.038v.021a5.358 5.358 0 0 1-.949 3.038 5.37 5.37 0 0 1-3.781 2.293zm8.383-5.341v-.003a9.015 9.015 0 0 0-1.746-5.336A9.01 9.01 0 0 0 7.133.158C7.044.155 6.955.151 6.865.151l-4.53.006C1.56.157 1 .333.654.687c-.347.352-.52.923-.52 1.71v13.596c0 .789.173 1.359.52 1.712.346.353.906.53 1.68.53l4.53.005c.09 0 .18-.004.268-.007a9.01 9.01 0 0 0 7.009-3.699 9.014 9.014 0 0 0 1.746-5.336v-.002z" fill="#FFF" mask="url(#f)"/></g><path d="M61.864.066c-.675-.194-1.404.051-1.797.606L54.5 8.53 48.932.672c-.393-.555-1.122-.8-1.797-.606C46.46.26 46 .85 46 1.517v13.966c0 .838.717 1.517 1.602 1.517.884 0 1.602-.68 1.602-1.517V6.5l3.953 5.579.008.011.005.007.015.02c.025.033.05.066.078.098l.038.04c.022.024.043.047.067.07.02.02.043.038.066.058.016.013.032.028.05.041.03.025.063.047.096.068.01.006.017.014.027.02a1.72 1.72 0 0 0 .113.064l.03.017a1.668 1.668 0 0 0 .592.17l.102.004.056.002.056-.002c.033-.002.067-.002.101-.005h.003c.172-.017.341-.06.504-.13.028-.013.057-.025.085-.04a1.765 1.765 0 0 0 .14-.079l.004-.001c.01-.006.017-.014.026-.02a.937.937 0 0 0 .097-.068c.018-.013.033-.028.05-.042.022-.019.045-.037.066-.057.024-.023.045-.046.067-.07l.038-.04c.028-.032.053-.065.078-.098l.015-.02.005-.007.008-.011L59.796 6.5v8.982c0 .838.717 1.517 1.602 1.517.884 0 1.602-.68 1.602-1.517V1.517C63 .85 62.539.26 61.864.066M39.6 17H28.627c-.577 0-1.218-.378-1.456-.967-.237-.587-.286-1.388.225-2.025L36.37 3.103h-7.414c-.81 0-1.468-.735-1.468-1.642C27.49.554 28.147 0 28.957 0h9.998c.577 0 1.174.096 1.696.695.478.547.457 1.728-.078 2.433l-8.67 10.588h7.696c.81 0 1.401.735 1.401 1.642 0 .907-.59 1.642-1.4 1.642" fill="#FFF"/><mask id="h" fill="#fff"><use xlink:href="#g"/></mask><path d="M9.2 18.24c-2.667 0-5.085-1.031-6.81-2.904C.872 13.686 0 11.513 0 9.372 0 2.655 5.725.152 9.334.152c3.548 0 6.152 1.696 6.261 1.768a1.708 1.708 0 0 1 .478 2.388 1.755 1.755 0 0 1-2.409.476c-.047-.029-1.894-1.192-4.33-1.192-2.262 0-5.382 1.457-5.382 5.78 0 2.46 1.876 5.36 5.315 5.36 1.935 0 3.295-.502 4.086-.993V11.18h-2.68a1.73 1.73 0 0 1-1.741-1.72c0-.951.78-1.721 1.741-1.721h4.422c.962 0 1.742.77 1.742 1.72v5.118c0 .465-.191.91-.529 1.235-1.168 1.12-3.73 2.427-7.108 2.427" fill="#FFF" mask="url(#h)"/></g></svg>