<svg width="78" height="21" xmlns="http://www.w3.org/2000/svg" xmlns:xlink="http://www.w3.org/1999/xlink"><defs><path id="a" d="M.012.006H14v20.993H.012V.006z"/><path id="c" d="M9.998.029v14.955H.031V.029h9.967z"/></defs><g fill="none" fill-rule="evenodd"><path d="M23.685 15.328c-.188 2.646-.763 4.081-1.837 4.58-.39.18-1.078.19-1.454.02-.934-.423-1.596-1.707-1.928-3.74-.21-1.288-.23-4.153-.039-5.556.27-1.972.838-3.136 1.724-3.53.607-.27 1.448-.11 1.988.378 1.201 1.082 1.808 4.16 1.546 7.848m4.272-3.023c-.298-2.516-1.367-4.358-3.133-5.394-1.961-1.152-4.942-1.219-7.06-.158-1.53.766-2.78 2.24-3.335 3.935-.572 1.749-.572 4.044 0 5.83.368 1.142.866 1.977 1.634 2.736.92.91 2.126 1.491 3.504 1.691.494.072 2.05.074 2.56.003.242-.034.66-.125.929-.202 2.498-.722 4.204-2.638 4.79-5.38.143-.67.201-2.292.11-3.06" fill="#FFF"/><g transform="translate(38)"><mask id="b" fill="#fff"><use xlink:href="#a"/></mask><path d="M9.857 15.149c-.247 1.68-.696 2.978-1.32 3.816-.303.406-.806.79-1.2.916-.253.081-.797.1-1.28.046-.11-.013-.225-.058-.258-.101-.092-.12-.192-7.951-.13-10.242l.048-1.818.429-.133c.633-.196 1.315-.165 1.798.08.97.495 1.608 1.717 1.939 3.717.108.651.092 2.914-.026 3.719m3.997-4.21c-.535-2.634-2.064-4.453-4.13-4.913-.316-.07-.602-.084-1.218-.061-.925.034-1.562.183-2.253.527a5.46 5.46 0 0 1-.445.207c-.015 0-.013-1.506.005-3.346C5.84.76 5.832.006 5.782.006 5.607.002.129 1.126.069 1.178c-.045.038-.064.163-.054.351.018.328-.018.302.65.464.2.048.436.142.522.208.223.171.409.54.537 1.07.101.418.115.717.162 3.543.047 2.885.038 5.852-.036 11.286l-.03 2.258.393.096c.568.139 2.194.43 2.726.488.78.085 2.6.073 3.18-.02 2.515-.409 4.411-1.978 5.295-4.383.234-.638.46-1.62.538-2.35.093-.855.04-2.562-.098-3.25" fill="#FFF" mask="url(#b)"/></g><path d="M62.12 11.782c-1.214.066-3.82.1-3.85.05-.045-.07.064-1.08.171-1.602.259-1.261.673-2.171 1.243-2.732.307-.301.447-.395.697-.468.172-.05.367-.09.433-.09.266 0 .581.133.815.344.629.566.989 1.78 1.06 3.578l.035.887-.604.033zm4.83-.05c-.267-2.548-1.325-4.303-3.122-5.182-1.596-.78-4.062-.725-5.865.133-1.71.814-2.885 2.17-3.542 4.084-.342.997-.45 1.8-.415 3.093.022.817.06 1.24.147 1.617.674 2.935 2.735 4.93 5.619 5.438.635.111 2.076.114 2.717.004.916-.156 1.973-.554 2.639-.993.813-.536 1.647-1.342 1.647-1.592 0-.153-.28-.504-.401-.504-.053 0-.279.115-.502.256-.795.502-1.556.708-2.613.708-1.459 0-2.383-.355-3.313-1.27-.411-.406-.58-.625-.794-1.027-.468-.883-.72-1.9-.759-3.048l-.016-.496 4.3-.015 4.301-.014.02-.284a7.27 7.27 0 0 0-.047-.907z" fill="#FFF"/><g transform="translate(68 6)"><mask id="d" fill="#fff"><use xlink:href="#c"/></mask><path d="M3.276 14.97c-.932-.108-2.417-.46-2.911-.69l-.242-.112-.033-1.293c-.018-.711-.039-1.662-.046-2.113l-.013-.82.144-.075c.08-.041.24-.08.357-.086l.212-.01.181.48c.706 1.878 1.533 2.89 2.613 3.198.413.117 1.185.118 1.49.002.855-.327 1.324-1.026 1.328-1.982.005-1.132-.57-1.676-2.745-2.594-1.347-.57-1.817-.862-2.376-1.481C.63 6.726.34 5.965.287 4.907.22 3.627.592 2.548 1.412 1.629 2.238.704 3.311.202 4.772.059 6.058-.07 8.032.225 9.067.7l.189.086.034 1.153c.018.634.037 1.484.042 1.888l.01.736-.254.102c-.401.16-.427.14-.65-.498-.625-1.79-1.351-2.637-2.483-2.896-.69-.157-1.265.012-1.684.496-.326.377-.454.713-.484 1.275-.034.61.067.94.412 1.348.424.502 1.12.936 2.507 1.562 1.698.767 2.508 1.419 2.949 2.37.286.619.367 1.113.338 2.063-.022.713-.043.86-.193 1.339-.49 1.56-1.594 2.589-3.3 3.07-.578.164-.66.172-1.81.186-.662.008-1.298.003-1.414-.01" fill="#FFF" mask="url(#d)"/></g><path d="M.075 20.967c-.047-.019-.07-.16-.07-.423 0-.47-.03-.45.87-.619.69-.13.936-.262 1.24-.667.591-.784.719-2.295.72-8.516.001-5.841-.11-7.07-.72-7.973-.272-.4-.728-.618-1.493-.711l-.59-.072-.016-.466L0 1.054l.185-.033c.101-.018 3.668-.026 7.927-.017l7.742.016.037.227c.02.125.052 1.408.072 2.851L16 6.722l-.4.123c-.6.185-.596.187-.867-.538-.664-1.78-1.425-2.805-2.467-3.323-.719-.357-1.05-.4-3.08-.4H7.42l-.03.298c-.058.56-.148 4.16-.147 5.856v1.692l.52-.003c.285-.002.848-.023 1.25-.048.606-.036.786-.069 1.039-.188.622-.291 1.045-.934 1.304-1.98l.134-.539.458-.016.458-.017v6.832l-.458-.016-.458-.017-.13-.54c-.245-1.015-.715-1.742-1.296-2.002-.268-.12-.933-.189-2.217-.228l-.603-.019v1.284c0 1.398.075 3.29.173 4.317.135 1.431.496 2.222 1.145 2.508.123.055.515.144.87.198.355.053.69.12.744.149.137.071.145.813.01.866-.107.04-10.01.038-10.111-.004m26.989-.003c-.049-.034-.064-.167-.053-.449l.015-.4.186-.043c.101-.024.32-.071.485-.105.513-.105.807-.41.972-1.007.135-.486.195-2.04.198-5.164.004-3.819-.069-4.721-.421-5.232-.191-.277-.329-.356-.792-.454l-.535-.114C27.013 7.972 27 7.934 27 7.65c0-.277.016-.326.119-.373.158-.071 5.397-1.219 5.565-1.219h.13l-.025.855c-.014.47-.037 1.155-.05 1.522l-.025.666.19-.375c.608-1.201 1.289-1.946 2.195-2.402.497-.25.83-.324 1.444-.324.728 0 1.457.26 1.457.521 0 .176-1.284 3.894-1.355 3.924-.034.015-.285-.09-.557-.234-.567-.298-1.099-.444-1.615-.442-.643.001-1.362.26-1.645.594-.122.143-.122.151-.152 2.281-.03 2.11.034 4.682.142 5.717.092.881.306 1.315.747 1.517.148.068 1.08.207 1.383.208.023 0 .035.202.027.449l-.016.45-3.913.013c-2.153.008-3.945-.008-3.982-.034" fill="#FFF"/></g></svg>