<svg width="122" height="23" xmlns="http://www.w3.org/2000/svg" xmlns:xlink="http://www.w3.org/1999/xlink"><defs><path id="a" d="M0 23V.29h22.71V23z"/></defs><g fill="none" fill-rule="evenodd"><mask id="b" fill="#fff"><use xlink:href="#a"/></mask><path d="M22.71 11.646C22.71 17.916 17.626 23 11.355 23 5.084 23 0 17.916 0 11.646 0 5.373 5.084.29 11.355.29c6.271 0 11.355 5.084 11.355 11.356" fill="#FFF" mask="url(#b)"/><path d="M27.052 13.286V5.492h3.432v6.783c0 1.342.136 2.65 1.86 2.65 1.725 0 1.862-1.308 1.862-2.65V5.492h3.43v7.794c0 3.017-1.894 4.69-5.292 4.69-3.5 0-5.292-1.673-5.292-4.69m11.508 2.911l1.657-2.335c.615.749 1.639 1.43 2.816 1.43.889 0 1.418-.384 1.418-1.1 0-.855-.768-1.098-2.066-1.5-1.741-.54-3.277-1.464-3.277-3.573 0-2.32 1.86-3.871 4.49-3.871 1.825 0 3.21.575 4.079 1.411l-1.554 2.338a3.126 3.126 0 0 0-2.355-1.064c-.887 0-1.263.367-1.263.855 0 .766.904.975 1.895 1.29 1.945.627 3.448 1.534 3.448 3.784 0 2.353-1.655 4.114-4.643 4.114-2.203 0-3.91-.959-4.645-1.779m17.126-3.016l-.923-2.947a11.345 11.345 0 0 1-.41-1.83h-.102a11.301 11.301 0 0 1-.408 1.83l-.923 2.947h2.766zm-3.227-7.689h3.773l4.456 12.24H57.12l-.564-1.76h-4.524l-.546 1.76h-3.482l4.455-12.24zM67.312 8.09h-2.954V5.248h9.338V8.09h-2.953v9.398h-3.43zm16.254 3.295c0-2.196-1.399-3.33-3.073-3.33-1.64 0-3.039 1.134-3.039 3.33 0 2.18 1.4 3.297 3.039 3.297 1.674 0 3.073-1.117 3.073-3.297m-9.63 0c0-3.015 2.118-6.381 6.573-6.381 4.475 0 6.593 3.366 6.593 6.381 0 3-2.118 6.348-6.593 6.348-4.455 0-6.573-3.348-6.573-6.348m17.827 3.279h.734c2.202 0 3.38-1.081 3.38-3.296 0-2.214-1.178-3.295-3.38-3.295h-.734v6.59zm-3.431-9.416h4.42c4.235 0 6.66 2.302 6.66 6.12 0 3.75-2.494 6.12-6.66 6.12h-4.42V5.248zm18.287 7.69l-.923-2.947a11.2 11.2 0 0 1-.41-1.832h-.102a11.235 11.235 0 0 1-.41 1.832l-.922 2.947h2.767zm-3.229-7.69h3.774l4.455 12.24h-3.566l-.564-1.76h-4.526l-.546 1.76h-3.482l4.455-12.24zm10.348 7.882l-4.473-7.882h3.756l1.622 3.016c.341.645.82 1.622.922 2.268h.069c.101-.646.58-1.623.922-2.268l1.623-3.016h3.652l-4.473 7.881v4.36h-3.62v-4.36z" fill="#FFF"/></g></svg>